PathFileType	4	(X/Y/Z)	C:/Users/opensim2020/Desktop/walking_exp_matlab/subject03_walking10_straight_04.trc	
DataRate	CameraRate	NumFrames	NumMarkers	Units	OrigDataRate	OrigDataStartFrame	OrigNumFrames	
100.00	100.00	5	45	mm	100.00	3903	317	
Frame#	Time	LFHD			RFHD			LBHD			RBHD			C7			T10			CLAV			STRN			RBAK			LSHO			LUPA			LELB			LFRM			LWRA			LWRB			LFIN			RSHO			RUPA			RELB			RFRM			RWRA			RWRB			RFIN			LASI			RASI			LPSI			RPSI			LTHI			LKNE			LTIB			LANK			LHEE			LTOE			RTHI			RKNE			RTIB			RANK			RHEE			RTOE			*39			*40			*41			*42			*43			*44			
		X1	Y1	Z1	X2	Y2	Z2	X3	Y3	Z3	X4	Y4	Z4	X5	Y5	Z5	X6	Y6	Z6	X7	Y7	Z7	X8	Y8	Z8	X9	Y9	Z9	X10	Y10	Z10	X11	Y11	Z11	X12	Y12	Z12	X13	Y13	Z13	X14	Y14	Z14	X15	Y15	Z15	X16	Y16	Z16	X17	Y17	Z17	X18	Y18	Z18	X19	Y19	Z19	X20	Y20	Z20	X21	Y21	Z21	X22	Y22	Z22	X23	Y23	Z23	X24	Y24	Z24	X25	Y25	Z25	X26	Y26	Z26	X27	Y27	Z27	X28	Y28	Z28	X29	Y29	Z29	X30	Y30	Z30	X31	Y31	Z31	X32	Y32	Z32	X33	Y33	Z33	X34	Y34	Z34	X35	Y35	Z35	X36	Y36	Z36	X37	Y37	Z37	X38	Y38	Z38	X39	Y39	Z39	X40	Y40	Z40	X41	Y41	Z41	X42	Y42	Z42	X43	Y43	Z43	X44	Y44	Z44	X45	Y45	Z45	

80	0.790	-932.67438	473.49619	1609.18750	-1065.62354	480.56787	1612.60022	-931.15393	595.57764	1550.32458	-1062.14063	597.40533	1553.63208	-984.34424	617.42719	1400.83057	-983.64911	655.07294	1088.76917	-990.67566	496.75592	1322.04395	-981.70990	456.41385	1156.54456	-1074.02222	678.08551	1225.49573	-833.87891	530.21191	1362.02026	-755.52539	504.46692	1173.18481	-740.21100	465.55930	1057.74304	-746.72021	391.49118	951.95154	-783.69763	325.46649	856.15784	-732.95428	347.38608	847.38818	-746.17456	294.58075	782.72504	-1148.67981	549.31482	1341.92810	-1217.49976	563.97949	1118.94482	-1231.00159	554.30731	1006.38129	-1233.86755	544.54425	869.68231	-1201.93713	516.64563	772.52533	-1242.98083	551.61060	770.47260	-1239.20435	530.80359	699.32751	-862.41876	490.15842	925.17017	-1102.38501	482.35037	924.70111	-920.65118	650.40887	947.69171	-1069.38843	645.87164	949.43018	-832.23743	585.22247	629.71014	-869.06903	618.59766	454.12949	-868.25616	718.20825	281.68167	-908.79071	794.36353	84.04836	-944.38367	842.17773	56.86327	-932.07758	650.86078	28.97892	-1152.40137	482.40991	632.73535	-1115.85657	409.45947	467.08765	-1128.50720	394.44046	283.04974	-1091.99939	345.42929	69.27167	-1039.65698	382.38205	31.75389	-1066.86389	200.20952	49.77180	-979.21558	564.59589	1660.22742															 
81	0.800	-933.75470	466.23987	1609.27820	-1066.71741	473.20847	1612.60461	-932.31110	588.13934	1550.03406	-1063.32617	589.98907	1553.36450	-985.69006	609.65552	1400.60229	-984.95068	646.87494	1088.50183	-991.64606	488.83725	1321.97034	-982.61133	448.22488	1156.56091	-1075.42139	669.79657	1225.16992	-834.96606	522.71539	1361.88232	-757.14423	497.53638	1172.65112	-742.27155	458.85922	1057.04529	-749.16138	384.98404	951.00171	-786.67737	319.39197	855.32349	-735.85840	341.07889	846.39618	-749.46234	288.43262	781.72614	-1149.87720	540.97229	1341.76770	-1218.33899	555.82996	1118.56104	-1231.37671	546.42896	1006.00391	-1233.88306	537.01563	869.26416	-1201.55933	509.35852	772.10242	-1242.75208	544.22119	770.00610	-1238.44604	523.78381	698.67841	-863.29382	482.18289	924.76160	-1103.36963	473.73566	924.59003	-922.04480	642.26813	947.63263	-1070.80066	637.37634	949.60266	-832.98999	578.69458	629.66882	-869.46753	612.98322	454.18674	-868.35699	714.56549	282.75516	-908.51379	793.29822	86.11786	-944.05267	841.50775	59.56950	-931.99249	650.78870	28.82767	-1153.18420	474.85748	632.72906	-1116.58948	403.52661	466.31091	-1128.70239	391.09637	281.69281	-1091.85620	344.51086	67.55747	-1039.02759	382.26822	31.17514	-1066.17188	199.66859	43.32557	-980.46643	557.41333	1659.96240															 
82	0.810	-934.82416	459.04904	1609.50867	-1067.81970	465.85281	1612.88245	-933.55035	580.69354	1549.90344	-1064.54211	582.41675	1553.22009	-987.13812	601.91400	1400.57092	-986.36047	638.40326	1088.35754	-992.74579	480.83203	1322.04810	-983.57861	440.03433	1156.73291	-1076.79749	661.47491	1224.92712	-836.07751	515.24878	1361.85620	-758.83624	490.68027	1172.19678	-744.34503	452.34253	1056.38770	-751.63751	378.80078	950.24945	-789.48315	313.34644	854.40094	-738.75946	335.13083	845.32635	-752.73010	282.61752	780.59149	-1151.11182	532.55914	1341.68921	-1218.98340	547.37036	1118.42505	-1231.84473	538.31146	1005.68689	-1233.86292	529.22900	868.96423	-1201.20093	501.96555	771.81921	-1242.49426	536.67426	769.68195	-1237.75989	516.59308	698.18536	-864.25079	474.02274	924.38782	-1104.35242	465.04590	924.58899	-923.46716	634.09357	947.68384	-1072.28955	628.74506	949.96912	-833.50818	571.93860	629.58691	-869.93280	607.06482	454.26297	-868.47711	710.69055	283.86606	-908.25439	792.15820	88.43716	-943.73193	840.49744	62.46503	-932.05652	650.59857	28.81837	-1153.84375	467.29834	633.20465	-1117.37024	398.35596	465.72891	-1128.57629	388.34924	280.65213	-1091.59546	342.38110	67.10202	-1039.61157	381.22510	32.01534	-1065.11670	197.62131	39.00160	-981.53101	550.29010	1659.86194															 
83	0.820	-935.90009	451.71808	1610.10974	-1068.90894	458.41092	1613.46460	-934.77673	573.18585	1549.99304	-1065.83398	574.80438	1553.37146	-988.61755	594.07648	1400.87097	-987.89288	629.90448	1088.50464	-993.80835	472.77594	1322.52234	-984.54132	431.74512	1157.21509	-1078.12012	653.18195	1224.95715	-837.21759	507.70099	1362.02344	-760.53589	483.81424	1171.82532	-746.53650	445.87671	1055.76953	-754.10187	372.66132	949.23260	-792.30066	307.59784	853.47900	-741.62677	329.48999	844.18964	-755.93561	277.18704	779.32990	-1152.41858	524.09338	1341.76843	-1219.97925	538.94177	1118.24854	-1232.35229	530.03302	1005.52295	-1233.94861	521.25317	868.77271	-1200.96082	494.26157	771.63599	-1242.27087	528.84399	769.42255	-1237.05542	509.10049	697.89685	-865.16766	465.74216	924.10785	-1105.28992	456.38177	924.87683	-924.82300	625.80438	947.82922	-1073.74646	620.01764	950.72443	-834.33252	564.84552	629.59229	-870.51556	600.75958	454.34064	-868.66205	706.53235	285.19998	-907.80914	790.60693	90.88709	-943.06659	839.68915	65.86002	-932.12433	650.36591	28.80645	-1154.40759	459.86423	634.27118	-1118.18555	393.89624	465.59683	-1128.53003	385.21481	280.36292	-1091.15344	339.35651	67.10989	-1039.74109	379.09256	33.15056	-1065.80945	194.28542	37.90520	-982.72986	543.09558	1660.18213															 
84	0.830	-936.92462	444.39227	1610.97241	-1069.97937	450.91870	1614.45752	-936.06891	565.61743	1550.45532	-1067.09424	567.09650	1553.88635	-990.09515	586.19373	1401.58118	-989.36993	621.33411	1088.98523	-995.00775	464.81876	1323.25916	-985.61560	423.54117	1158.05322	-1079.50403	644.85760	1225.36426	-838.27264	500.18488	1362.46252	-762.32544	476.89322	1171.65088	-748.78369	439.54224	1055.32324	-756.57031	366.84641	948.42426	-795.09821	302.25754	852.38861	-744.45276	324.23618	843.08398	-759.03088	272.21295	778.05524	-1153.75293	515.60803	1342.12402	-1220.91809	530.29254	1118.42188	-1232.92859	521.49438	1005.57581	-1233.97607	512.94855	868.71533	-1200.47742	486.58856	771.57300	-1242.06555	520.83813	769.41541	-1236.47009	501.37430	697.77039	-866.21771	457.34787	924.01880	-1106.36987	447.76215	925.46423	-926.08313	617.46869	948.20618	-1075.12280	611.28894	951.93372	-835.32367	557.39532	629.77765	-871.07208	594.04333	454.52917	-868.87146	701.91846	286.71747	-907.48383	788.93536	93.79808	-942.79163	838.26019	69.50629	-932.27673	650.02350	28.91039	-1154.82800	452.83792	635.59729	-1119.02576	389.57166	465.85342	-1128.92993	381.14389	280.76160	-1090.59473	337.35715	67.06050	-1039.35083	377.83386	33.85754	-1067.38770	192.60133	36.77684	-984.03992	536.11346	1660.80481															 
